#!OML:ASF H:\Pregnant\Project 1\Capture day 1\Session 1\femalepreg.ASF
:FULLY-SPECIFIED
:DEGREES
908
root 3.3203 6.51393 18.2891 -108.945 8.96825 167.236
lowerback 8.87572 -3.83305 3.46285
upperback 12.4412 -6.74822 -4.58106
thorax 7.35248 -3.49129 -6.68216
lowerneck -13.9723 0.380569 0.864507
upperneck 38.6089 3.19333 2.73039
head 16.0416 2.22481 1.69562
rclavicle -3.68249e-014 -1.90336e-014
rhumerus 58.5394 23.8797 -60.7084
rradius 115.599
rwrist 10.9429
rhand -21.0067 -51.6561
rfingers 7.12502
rthumb 5.36792 -81.5681
lclavicle -3.68249e-014 -1.90336e-014
lhumerus 47.6708 -7.61932 78.9088
lradius 109.05
lwrist -11.6027
lhand -6.49998 -371
lfingers 7.12502
lthumb 19.3517 18.0566
rfemur -8.34415 7.45812 6.98367
rtibia 17.9704
rfoot 41.1225 0.230038
rtoes -32.624
lfemur -186.297 -16.4444 -45.8862
ltibia 113.428
lfoot 5.28125 1.29287
ltoes 13.8024
909
root 3.32184 6.51274 18.2877 -108.973 8.97766 167.242
lowerback 8.90264 -3.83424 3.46294
upperback 12.4553 -6.75445 -4.59921
thorax 7.35056 -3.49524 -6.7
lowerneck -13.9973 0.386596 0.90597
upperneck 38.6631 3.20255 2.73348
head 16.0765 2.2349 1.69403
rclavicle -2.61402e-014 1.6201e-014
rhumerus 58.5473 23.8937 -60.7319
rradius 115.602
rwrist 10.9457
rhand -21.0076 -51.6633
rfingers 7.12502
rthumb 5.367 -81.5753
lclavicle -2.61402e-014 1.6201e-014
lhumerus 47.6744 -7.6039 78.8713
lradius 109.057
lwrist -11.5914
lhand -6.49064 -371.004
lfingers 7.12502
lthumb 19.3606 18.052
rfemur -8.28384 7.48506 6.99014
rtibia 17.9217
rfoot 41.1204 0.285078
rtoes -32.7448
lfemur -186.301 -16.4104 -45.8981
ltibia 113.461
lfoot 5.27645 1.28829
ltoes 13.7864
910
root 3.3235 6.51159 18.2863 -108.999 8.98588 167.247
lowerback 8.92738 -3.83509 3.46426
upperback 12.4702 -6.76033 -4.61769
thorax 7.35074 -3.4988 -6.71925
lowerneck -14.0294 0.394525 0.945219
upperneck 38.7219 3.21386 2.74262
head 16.1152 2.24632 1.6962
rclavicle 2.34566e-014 3.71479e-014
rhumerus 58.5557 23.9047 -60.7559
rradius 115.606
rwrist 10.9497
rhand -21.0109 -51.6679
rfingers 7.12502
rthumb 5.36381 -81.58
lclavicle 2.34566e-014 3.71479e-014
lhumerus 47.6798 -7.59139 78.831
lradius 109.062
lwrist -11.5804
lhand -6.48615 -371.013
lfingers 7.12502
lthumb 19.365 18.0431
rfemur -8.22502 7.51261 6.99841
rtibia 17.8739
rfoot 41.1069 0.366774
rtoes -32.887
lfemur -186.306 -16.377 -45.9095
ltibia 113.495
lfoot 5.271 1.28337
ltoes 13.7697
911
root 3.32482 6.51091 18.2852 -109.009 8.99156 167.248
lowerback 8.93482 -3.8378 3.46908
upperback 12.4796 -6.76685 -4.63404
thorax 7.35422 -3.50176 -6.73939
lowerneck -14.0636 0.404567 0.981317
upperneck 38.7934 3.23166 2.7568
head 16.161 2.26065 1.70285
rclavicle -9.44227e-015 1.93567e-014
rhumerus 58.5629 23.9145 -60.7774
rradius 115.61
rwrist 10.9506
rhand -21.0196 -51.6662
rfingers 7.12502
rthumb 5.35546 -81.5785
lclavicle -9.44227e-015 1.93567e-014
lhumerus 47.6819 -7.58215 78.7926
lradius 109.067
lwrist -11.5678
lhand -6.48654 -371.025
lfingers 7.12502
lthumb 19.3646 18.0312
rfemur -8.18393 7.52821 7.00302
rtibia 17.8233
rfoot 41.0943 0.44461
rtoes -33.0315
lfemur -186.311 -16.358 -45.9154
ltibia 113.517
lfoot 5.26205 1.28076
ltoes 13.7532
912
root 3.32652 6.50968 18.2839 -109.041 8.99942 167.255
lowerback 8.96736 -3.83649 3.46815
upperback 12.4945 -6.76985 -4.64958
thorax 7.35092 -3.50438 -6.75354
lowerneck -14.0965 0.416517 1.00879
upperneck 38.8666 3.25178 2.78225
head 16.2069 2.27624 1.71641
rclavicle 3.19049e-014 -2.23633e-016
rhumerus 58.5709 23.9217 -60.7944
rradius 115.611
rwrist 10.9623
rhand -21.0341 -51.6708
rfingers 7.12502
rthumb 5.34146 -81.5835
lclavicle 3.19049e-014 -2.23633e-016
lhumerus 47.6849 -7.57523 78.7551
lradius 109.07
lwrist -11.553
lhand -6.49345 -371.041
lfingers 7.12502
lthumb 19.3579 18.0157
rfemur -8.11334 7.55683 7.01324
rtibia 17.7648
rfoot 41.0854 0.49206
rtoes -33.1212
lfemur -186.313 -16.3206 -45.9278
ltibia 113.553
lfoot 5.25706 1.27498
ltoes 13.7371
913
root 3.32863 6.50824 18.2822 -109.078 9.00688 167.264
lowerback 9.00271 -3.83243 3.46208
upperback 12.5112 -6.76977 -4.66197
thorax 7.34936 -3.50604 -6.76155
lowerneck -14.1355 0.429449 1.0347
upperneck 38.9498 3.27723 2.80611
head 16.2596 2.29349 1.73112
rclavicle -4.63168e-014 -1.46604e-014
rhumerus 58.5809 23.9259 -60.8068
rradius 115.609
rwrist 10.9795
rhand -21.0566 -51.6699
rfingers 7.12502
rthumb 5.31969 -81.5831
lclavicle -4.63168e-014 -1.46604e-014
lhumerus 47.6887 -7.56895 78.7197
lradius 109.073
lwrist -11.5369
lhand -6.49697 -371.056
lfingers 7.12502
lthumb 19.3546 18.0009
rfemur -8.03233 7.593 7.02807
rtibia 17.6993
rfoot 41.0919 0.501248
rtoes -33.1746
lfemur -186.319 -16.2761 -45.9424
ltibia 113.595
lfoot 5.25468 1.26508
ltoes 13.716
914
root 3.33085 6.50671 18.2804 -109.117 9.01235 167.272
lowerback 9.03869 -3.82845 3.45408
upperback 12.5277 -6.76981 -4.6717
thorax 7.34755 -3.508 -6.76551
lowerneck -14.1671 0.44137 1.05921
upperneck 39.023 3.30213 2.82278
head 16.3055 2.30932 1.74228
rclavicle 1.63997e-014 1.3418e-014
rhumerus 58.5884 23.9305 -60.8187
rradius 115.609
rwrist 10.9893
rhand -21.0656 -51.6718
rfingers 7.12502
rthumb 5.31101 -81.5853
lclavicle 1.63997e-014 1.3418e-014
lhumerus 47.6903 -7.56185 78.685
lradius 109.077
lwrist -11.5158
lhand -6.50758 -371.067
lfingers 7.12502
lthumb 19.3444 17.9908
rfemur -7.94284 7.62974 7.04562
rtibia 17.6261
rfoot 41.1089 0.472513
rtoes -33.2052
lfemur -186.324 -16.2315 -45.9576
ltibia 113.638
lfoot 5.25486 1.25419
ltoes 13.702
915
root 3.33304 6.50524 18.2786 -109.153 9.01386 167.274
lowerback 9.067 -3.82634 3.44697
upperback 12.544 -6.7722 -4.67855
thorax 7.34988 -3.51084 -6.76757
lowerneck -14.195 0.453682 1.07448
upperneck 39.0833 3.32532 2.84348
head 16.3436 2.32365 1.75594
rclavicle -5.52621e-014 1.76421e-015
rhumerus 58.5989 23.9333 -60.8293
rradius 115.61
rwrist 10.9868
rhand -21.0709 -51.666
rfingers 7.12502
rthumb 5.30585 -81.5795
lclavicle -5.52621e-014 1.76421e-015
lhumerus 47.6937 -7.55213 78.6498
lradius 109.082
lwrist -11.4913
lhand -6.5141 -371.072
lfingers 7.12502
lthumb 19.3381 17.9865
rfemur -7.85731 7.66159 7.06461
rtibia 17.5566
rfoot 41.1187 0.412816
rtoes -33.2026
lfemur -186.327 -16.1948 -45.9707
ltibia 113.677
lfoot 5.25876 1.24116
ltoes 13.6723
916
root 3.3347 6.50439 18.277 -109.168 9.00799 167.267
lowerback 9.0709 -3.8302 3.45056
upperback 12.555 -6.78043 -4.68425
thorax 7.35814 -3.51481 -6.77606
lowerneck -14.2367 0.465159 1.11265
upperneck 39.1516 3.35541 2.82609
head 16.3908 2.33868 1.7508
rclavicle -4.76586e-014 -2.88238e-015
rhumerus 58.609 23.9372 -60.8412
rradius 115.61
rwrist 10.9826
rhand -21.0681 -51.6606
rfingers 7.12502
rthumb 5.30855 -81.5741
lclavicle -4.76586e-014 -2.88238e-015
lhumerus 47.697 -7.54053 78.6124
lradius 109.087
lwrist -11.4626
lhand -6.51928 -371.07
lfingers 7.12502
lthumb 19.3331 17.9891
rfemur -7.79897 7.67633 7.08116
rtibia 17.4971
rfoot 41.1254 0.340089
rtoes -33.2076
lfemur -186.327 -16.1818 -45.9746
ltibia 113.698
lfoot 5.26237 1.22993
ltoes 13.6365
917
root 3.3357 6.50418 18.2759 -109.165 8.99632 167.25
lowerback 9.0535 -3.83999 3.46435
upperback 12.5612 -6.79468 -4.68958
thorax 7.37119 -3.52014 -6.79124
lowerneck -14.2726 0.477669 1.1419
upperneck 39.2022 3.38317 2.81369
head 16.4271 2.35218 1.74813
rclavicle 9.60627e-014 8.85834e-015
rhumerus 58.6211 23.9408 -60.8551
rradius 115.615
rwrist 10.9618
rhand -21.0517 -51.646
rfingers 7.12502
rthumb 5.32446 -81.5592
lclavicle 9.60627e-014 8.85834e-015
lhumerus 47.6997 -7.52756 78.5745
lradius 109.092
lwrist -11.4335
lhand -6.52254 -371.063
lfingers 7.12502
lthumb 19.33 17.9961
rfemur -7.77107 7.67127 7.09324
rtibia 17.4561
rfoot 41.1165 0.301031
rtoes -33.2586
lfemur -186.322 -16.1917 -45.9702
ltibia 113.699
lfoot 5.26587 1.22241
ltoes 13.5997
918
root 3.33619 6.50437 18.2752 -109.155 8.98087 167.229
lowerback 9.02785 -3.85275 3.4863
upperback 12.5655 -6.81197 -4.69521
thorax 7.38557 -3.52597 -6.8118
lowerneck -14.3007 0.490888 1.16356
upperneck 39.2328 3.40759 2.80481
head 16.4506 2.36375 1.7467
rclavicle 3.12589e-014 1.36167e-014
rhumerus 58.6358 23.9444 -60.8682
rradius 115.617
rwrist 10.95
rhand -21.041 -51.6357
rfingers 7.12502
rthumb 5.3348 -81.5486
lclavicle 3.12589e-014 1.36167e-014
lhumerus 47.7041 -7.51507 78.5385
lradius 109.095
lwrist -11.4058
lhand -6.52191 -371.054
lfingers 7.12502
lthumb 19.3306 18.0056
rfemur -7.76203 7.65561 7.1037
rtibia 17.4316
rfoot 41.0894 0.316006
rtoes -33.3596
lfemur -186.313 -16.2122 -45.9591
ltibia 113.688
lfoot 5.27021 1.21756
ltoes 13.5647
919
root 3.33606 6.50517 18.275 -109.128 8.96059 167.206
lowerback 8.98664 -3.86919 3.51927
upperback 12.5652 -6.83227 -4.70106
thorax 7.40197 -3.53176 -6.83972
lowerneck -14.3228 0.504373 1.18022
upperneck 39.2463 3.4289 2.79685
head 16.4636 2.3735 1.74513
rclavicle 1.04859e-014 1.89467e-014
rhumerus 58.6524 23.9487 -60.8803
rradius 115.617
rwrist 10.9446
rhand -21.0331 -51.6344
rfingers 7.12502
rthumb 5.34234 -81.547
lclavicle 1.04859e-014 1.89467e-014
lhumerus 47.71 -7.50326 78.5033
lradius 109.096
lwrist -11.3789
lhand -6.52011 -371.042
lfingers 7.12502
lthumb 19.3323 18.0169
rfemur -7.7798 7.62711 7.11155
rtibia 17.4198
rfoot 41.0621 0.372548
rtoes -33.5125
lfemur -186.302 -16.2484 -45.9387
ltibia 113.662
lfoot 5.27284 1.21868
ltoes 13.5418
920
root 3.33586 6.50576 18.275 -109.117 8.94249 167.187
lowerback 8.96654 -3.88464 3.55287
upperback 12.5678 -6.85233 -4.7098
thorax 7.40964 -3.53813 -6.86915
lowerneck -14.3356 0.517707 1.19113
upperneck 39.2414 3.4454 2.79294
head 16.4642 2.38112 1.74447
rclavicle -1.68967e-015 1.2511e-014
rhumerus 58.6699 23.9538 -60.8928
rradius 115.612
rwrist 10.954
rhand -21.0318 -51.6508
rfingers 7.12502
rthumb 5.34364 -81.5634
lclavicle -1.68967e-015 1.2511e-014
lhumerus 47.718 -7.49208 78.4693
lradius 109.095
lwrist -11.3596
lhand -6.51849 -371.031
lfingers 7.12502
lthumb 19.3339 18.0281
rfemur -7.78522 7.60261 7.12082
rtibia 17.4141
rfoot 41.0443 0.441931
rtoes -33.6696
lfemur -186.286 -16.2731 -45.9214
ltibia 113.64
lfoot 5.27721 1.2213
ltoes 13.5225
921
root 3.33584 6.50631 18.275 -109.107 8.92582 167.174
lowerback 8.94818 -3.89791 3.58463
upperback 12.5706 -6.86956 -4.71939
thorax 7.41682 -3.54326 -6.89845
lowerneck -14.3411 0.529246 1.19466
upperneck 39.22 3.45396 2.79653
head 16.4541 2.38558 1.74613
rclavicle 2.21645e-014 -1.19271e-014
rhumerus 58.6862 23.9577 -60.9074
rradius 115.606
rwrist 10.968
rhand -21.0335 -51.6625
rfingers 7.12502
rthumb 5.34197 -81.5752
lclavicle 2.21645e-014 -1.19271e-014
lhumerus 47.7265 -7.48323 78.4371
lradius 109.091
lwrist -11.3443
lhand -6.51582 -371.023
lfingers 7.12502
lthumb 19.3364 18.0352
rfemur -7.79303 7.58424 7.13119
rtibia 17.4124
rfoot 41.0345 0.507472
rtoes -33.8155
lfemur -186.275 -16.2918 -45.9049
ltibia 113.621
lfoot 5.28306 1.22232
ltoes 13.5014
